<?xml version="1.0" encoding="utf-8"?>
<!-- Generator: Adobe Illustrator 25.2.1, SVG Export Plug-In . SVG Version: 6.00 Build 0)  -->
<svg version="1.1" id="Capa_1" xmlns="http://www.w3.org/2000/svg" xmlns:xlink="http://www.w3.org/1999/xlink" x="0px" y="0px"
	 viewBox="0 0 64 64" style="enable-background:new 0 0 64 64;" xml:space="preserve">
<style type="text/css">
	.st0{fill-rule:evenodd;clip-rule:evenodd;fill:url(#SVGID_1_);}
	.st1{fill-rule:evenodd;clip-rule:evenodd;fill:url(#SVGID_2_);}
	.st2{fill-rule:evenodd;clip-rule:evenodd;fill:url(#SVGID_3_);}
</style>
<linearGradient id="SVGID_1_" gradientUnits="userSpaceOnUse" x1="19" y1="41.142" x2="19" y2="16.959" gradientTransform="matrix(1 0 0 -1 0 66)">
	<stop  offset="0" style="stop-color:#6DC7FF"/>
	<stop  offset="1" style="stop-color:#E6ABFF"/>
</linearGradient>
<path class="st0" d="M22,48V26h-6v22H22z"/>
<linearGradient id="SVGID_2_" gradientUnits="userSpaceOnUse" x1="19.382" y1="50.577" x2="19.382" y2="42.659" gradientTransform="matrix(1 0 0 -1 0 66)">
	<stop  offset="0" style="stop-color:#6DC7FF"/>
	<stop  offset="1" style="stop-color:#E6ABFF"/>
</linearGradient>
<path class="st1" d="M19.4,23c2.5,0,4.1-1.5,4.1-3.6c0-2.1-1.6-3.6-4-3.6c-2.5,0-4.1,1.5-4.1,3.6C15.3,21.5,16.9,23,19.4,23L19.4,23
	L19.4,23z"/>
<linearGradient id="SVGID_3_" gradientUnits="userSpaceOnUse" x1="37.386" y1="51.875" x2="37.386" y2="16.475" gradientTransform="matrix(1 0 0 -1 0 66)">
	<stop  offset="0" style="stop-color:#6DC7FF"/>
	<stop  offset="1" style="stop-color:#E6ABFF"/>
</linearGradient>
<path class="st2" d="M26.9,48H34V35.9c0-0.6,0.1-1.3,0.3-1.8c0.5-1.3,1.9-2.6,3.9-2.6c2.6,0,3.8,2,3.8,4.9V48h6V35.6
	c0-6.7-3.1-9.5-7.8-9.5c-3.9,0-5.1,1.9-6.1,3.9H34v-4h-7.1c0.1,2-0.2,22-0.2,22H26.9z"/>
</svg>
