<?xml version="1.0" encoding="utf-8"?>
<!-- Generator: Adobe Illustrator 25.2.1, SVG Export Plug-In . SVG Version: 6.00 Build 0)  -->
<svg version="1.1" xmlns="http://www.w3.org/2000/svg" xmlns:xlink="http://www.w3.org/1999/xlink" x="0px" y="0px"
	 viewBox="0 0 64 64" style="enable-background:new 0 0 64 64;" xml:space="preserve">
<style type="text/css">
	.st0{display:none;fill-rule:evenodd;clip-rule:evenodd;fill:url(#SVGID_1_);}
	.st1{display:none;fill-rule:evenodd;clip-rule:evenodd;fill:url(#SVGID_2_);}
	.st2{display:none;fill-rule:evenodd;clip-rule:evenodd;fill:url(#SVGID_3_);}
	.st3{fill-rule:evenodd;clip-rule:evenodd;fill:url(#SVGID_4_);}
	.st4{display:none;}
	.st5{display:inline;fill:url(#SVGID_5_);}
	.st6{fill:url(#SVGID_6_);}
</style>
<g id="Capa_1">
	
		<linearGradient id="SVGID_1_" gradientUnits="userSpaceOnUse" x1="19" y1="41.142" x2="19" y2="16.959" gradientTransform="matrix(1 0 0 -1 0 66)">
		<stop  offset="0" style="stop-color:#6DC7FF"/>
		<stop  offset="1" style="stop-color:#E6ABFF"/>
	</linearGradient>
	<path class="st0" d="M22,48V26h-6v22H22z"/>
	
		<linearGradient id="SVGID_2_" gradientUnits="userSpaceOnUse" x1="19.382" y1="50.577" x2="19.382" y2="42.659" gradientTransform="matrix(1 0 0 -1 0 66)">
		<stop  offset="0" style="stop-color:#6DC7FF"/>
		<stop  offset="1" style="stop-color:#E6ABFF"/>
	</linearGradient>
	<path class="st1" d="M19.4,23c2.5,0,4.1-1.5,4.1-3.6c0-2.1-1.6-3.6-4-3.6c-2.5,0-4.1,1.5-4.1,3.6C15.3,21.5,16.9,23,19.4,23
		L19.4,23L19.4,23z"/>
	
		<linearGradient id="SVGID_3_" gradientUnits="userSpaceOnUse" x1="37.386" y1="51.875" x2="37.386" y2="16.475" gradientTransform="matrix(1 0 0 -1 0 66)">
		<stop  offset="0" style="stop-color:#6DC7FF"/>
		<stop  offset="1" style="stop-color:#E6ABFF"/>
	</linearGradient>
	<path class="st2" d="M26.9,48H34V35.9c0-0.6,0.1-1.3,0.3-1.8c0.5-1.3,1.9-2.6,3.9-2.6c2.6,0,3.8,2,3.8,4.9V48h6V35.6
		c0-6.7-3.1-9.5-7.8-9.5c-3.9,0-5.1,1.9-6.1,3.9H34v-4h-7.1c0.1,2-0.2,22-0.2,22H26.9z"/>
	
		<linearGradient id="SVGID_4_" gradientUnits="userSpaceOnUse" x1="32" y1="59.5" x2="32" y2="8.5" gradientTransform="matrix(1 0 0 -1 0 66)">
		<stop  offset="0" style="stop-color:#1A6DFF"/>
		<stop  offset="1" style="stop-color:#C822FF"/>
	</linearGradient>
	<path class="st3" d="M50,57H14c-3.9,0-7-3.1-7-7V14c0-3.9,3.1-7,7-7h36c3.9,0,7,3.1,7,7v36C57,53.9,53.9,57,50,57z M14,9
		c-2.8,0-5,2.2-5,5v36c0,2.8,2.2,5,5,5h36c2.8,0,5-2.2,5-5V14c0-2.8-2.2-5-5-5H14z"/>
</g>
<g id="Capa_2" class="st4">
	<linearGradient id="SVGID_5_" gradientUnits="userSpaceOnUse" x1="30.1079" y1="19.7153" x2="34.5223" y2="48.5348">
		<stop  offset="0" style="stop-color:#1F6BFF"/>
		<stop  offset="0.9994" style="stop-color:#C424FF"/>
	</linearGradient>
	<path class="st5" d="M48.8,21.6c-1.2,0.5-2.6,0.9-4,1.1c1.4-0.9,2.5-2.2,3-3.8c-1.3,0.8-2.8,1.4-4.4,1.7c-1.3-1.3-3-2.2-5-2.2
		c-4.4,0-7.7,4.1-6.7,8.5c-5.7-0.3-10.8-3-14.2-7.2c-1.8,3.1-0.9,7.1,2.1,9.2c-1.1,0-2.2-0.3-3.1-0.9c-0.1,3.2,2.2,6.2,5.5,6.8
		c-1,0.3-2,0.3-3.1,0.1c0.9,2.7,3.4,4.7,6.4,4.8c-2.9,2.3-6.5,3.3-10.2,2.9c3,2,6.7,3.1,10.6,3.1c12.8,0,20-10.8,19.6-20.5
		C46.7,24.2,47.9,23,48.8,21.6z"/>
</g>
<g id="Capa_3">
	<linearGradient id="SVGID_6_" gradientUnits="userSpaceOnUse" x1="29.5441" y1="16.3667" x2="34.421" y2="48.2056">
		<stop  offset="0" style="stop-color:#1F6BFF"/>
		<stop  offset="0.9994" style="stop-color:#C424FF"/>
	</linearGradient>
	<path class="st6" d="M32,16.2c-9,0-16.2,7.3-16.2,16.2c0,7.2,4.6,13.2,11.1,15.4c0.8,0.2,1.1-0.4,1.1-0.8v-3
		c-4.5,1-5.5-1.9-5.5-1.9c-0.7-1.9-1.8-2.4-1.8-2.4c-1.5-1,0.1-1,0.1-1c1.6,0.1,2.5,1.7,2.5,1.7c1.4,2.5,3.8,1.8,4.7,1.3
		c0.1-1,0.6-1.8,1-2.2c-3.6-0.4-7.4-1.8-7.4-8c0-1.8,0.6-3.2,1.7-4.4c-0.2-0.4-0.7-2.1,0.2-4.3c0,0,1.4-0.4,4.5,1.7
		c1.3-0.4,2.7-0.5,4.1-0.5c1.4,0,2.8,0.2,4.1,0.5c3.1-2.1,4.5-1.7,4.5-1.7c0.9,2.2,0.3,3.9,0.2,4.3c1,1.1,1.7,2.6,1.7,4.4
		c0,6.2-3.8,7.6-7.4,8c0.6,0.5,1.1,1.5,1.1,3V47c0,0.4,0.3,0.9,1.1,0.8c6.4-2.1,11.1-8.2,11.1-15.4C48.2,23.4,41,16.2,32,16.2z"/>
</g>
</svg>
