<?xml version="1.0" encoding="utf-8"?>
<!-- Generator: Adobe Illustrator 25.2.1, SVG Export Plug-In . SVG Version: 6.00 Build 0)  -->
<svg version="1.1" id="Capa_1" xmlns="http://www.w3.org/2000/svg" xmlns:xlink="http://www.w3.org/1999/xlink" x="0px" y="0px"
	 viewBox="0 0 64 64" style="enable-background:new 0 0 64 64;" xml:space="preserve">
<style type="text/css">
	.st0{fill:url(#SVGID_1_);}
</style>
<g id="Capa_1_1_">
	<g id="Capa_3">
		
			<linearGradient id="SVGID_1_" gradientUnits="userSpaceOnUse" x1="29.6586" y1="1420.3667" x2="34.5356" y2="1452.2058" gradientTransform="matrix(1 0 0 1 0 -1404)">
			<stop  offset="0" style="stop-color:#6DC7FF"/>
			<stop  offset="1" style="stop-color:#E6ABFF"/>
		</linearGradient>
		<path class="st0" d="M32,16.2c-9,0-16.2,7.3-16.2,16.2c0,7.2,4.6,13.2,11.1,15.4C27.7,48,28,47.4,28,47v-3c-4.5,1-5.5-1.9-5.5-1.9
			c-0.7-1.9-1.8-2.4-1.8-2.4c-1.5-1,0.1-1,0.1-1c1.6,0.1,2.5,1.7,2.5,1.7c1.4,2.5,3.8,1.8,4.7,1.3c0.1-1,0.6-1.8,1-2.2
			c-3.6-0.4-7.4-1.8-7.4-8c0-1.8,0.6-3.2,1.7-4.4c-0.2-0.4-0.7-2.1,0.2-4.3c0,0,1.4-0.4,4.5,1.7c1.3-0.4,2.7-0.5,4.1-0.5
			c1.4,0,2.8,0.2,4.1,0.5c3.1-2.1,4.5-1.7,4.5-1.7c0.9,2.2,0.3,3.9,0.2,4.3c1,1.1,1.7,2.6,1.7,4.4c0,6.2-3.8,7.6-7.4,8
			c0.6,0.5,1.1,1.5,1.1,3V47c0,0.4,0.3,0.9,1.1,0.8c6.4-2.1,11.1-8.2,11.1-15.4C48.2,23.4,41,16.2,32,16.2z"/>
	</g>
</g>
</svg>
