<svg id="fbfe39dc-3de5-4f32-9ac7-347c47e1bda0" data-name="Capa 3" xmlns="http://www.w3.org/2000/svg" viewBox="0 0 887.04 930.1"><defs><style>.f487b865-db24-4333-8d31-05209ab76cbd{fill:#2b353b;}</style></defs><path class="f487b865-db24-4333-8d31-05209ab76cbd" d="M960.48,161.45a183,183,0,1,1-129.41,53.6,181.81,181.81,0,0,1,129.41-53.6m0-90c-150.78,0-273,122.23-273,273s122.23,273,273,273,273-122.23,273-273-122.23-273-273-273Z" transform="translate(-516.96 -71.45)"/><path class="f487b865-db24-4333-8d31-05209ab76cbd" d="M1214,624.06a100.11,100.11,0,0,1,100,100V901.55a10,10,0,0,1-10,10H617a10,10,0,0,1-10-10V724.06a100.11,100.11,0,0,1,100-100h507m0-90H707c-104.93,0-190,85.07-190,190V901.55a100,100,0,0,0,100,100h687a100,100,0,0,0,100-100V724.06c0-104.93-85.07-190-190-190Z" transform="translate(-516.96 -71.45)"/></svg>