<svg id="Capa_1" data-name="Capa 1" xmlns="http://www.w3.org/2000/svg" xmlns:xlink="http://www.w3.org/1999/xlink" viewBox="0 0 31.01 31.87"><defs><style>.cls-1,.cls-2{stroke:#160607;stroke-miterlimit:10;}.cls-1{stroke-width:0.3px;fill:url(#Degradado_sin_nombre_3);}.cls-2{fill:#fab80e;stroke-width:0.15px;}.cls-3{fill:#fff;opacity:0.26;}</style><radialGradient id="Degradado_sin_nombre_3" cx="14.32" cy="17.55" r="14.17" gradientUnits="userSpaceOnUse"><stop offset="0" stop-color="#ee7900"/><stop offset="1" stop-color="#e8441d"/></radialGradient></defs><circle class="cls-1" cx="14.32" cy="17.55" r="14.17"/><path class="cls-2" d="M10.19.22C9.35,1.06,1.8,8.87,3.9,18.34c.79,3.52,3.51,10.6,14.27,12.37a20.48,20.48,0,0,0,13.52-3,46.07,46.07,0,0,1-6.3-3.89,35.93,35.93,0,0,1-8.45-8.2A38.39,38.39,0,0,1,12.52,7.2,53.79,53.79,0,0,1,10.19.22Z" transform="translate(-0.83 -0.07)"/><path class="cls-3" d="M28.13,28.4c0,.18-3.47,1.75-7.77,1.34-3.85-.36-6.75-2.17-6.69-2.33A32,32,0,0,0,20.36,29,29.3,29.3,0,0,0,28.13,28.4Z" transform="translate(-0.83 -0.07)"/></svg>