<svg id="ed59a28a-0f89-43a5-b0fb-d71d0ffe47d5" data-name="Capa 1" xmlns="http://www.w3.org/2000/svg" viewBox="0 0 805.97 69.1"><defs><style>.a61a33ba-c3fe-4bce-a203-96c9e3abd6f6{fill:#640175;}.bac38832-152f-49af-b25c-f31da5da0aa6{fill:#3fa9f5;}.f7c4c535-e5d2-4503-b63f-fbbc8f096a28{fill:#8cc63f;}.f89d3bbd-1081-4559-9e49-471b262c292b{fill:#93278f;}</style></defs><path class="a61a33ba-c3fe-4bce-a203-96c9e3abd6f6" d="M199,341.61l-1.7,9.67-25.73,10.38L193.66,372,192,381.7l-32.87-16.81,1.12-6.47Z" transform="translate(-159.09 -325.05)"/><path class="bac38832-152f-49af-b25c-f31da5da0aa6" d="M259.73,355.76H288.5a37.69,37.69,0,0,1-4,12.54,35.29,35.29,0,0,1-7.51,9.77,33.31,33.31,0,0,1-10.21,6.35,32.3,32.3,0,0,1-12,2.26,27,27,0,0,1-10.41-1.95,24.14,24.14,0,0,1-13.49-13.45,26.07,26.07,0,0,1-1.91-10,28.33,28.33,0,0,1,1.39-8.84,32.89,32.89,0,0,1,3.86-8,35.74,35.74,0,0,1,5.87-6.81,40.09,40.09,0,0,1,7.43-5.29,37.7,37.7,0,0,1,8.51-3.42,35.29,35.29,0,0,1,9.17-1.2A28.49,28.49,0,0,1,276.79,330a23.72,23.72,0,0,1,8.88,6.76l-8,6.85a14.87,14.87,0,0,0-2.4-2.78,15.32,15.32,0,0,0-3.18-2.22,16.73,16.73,0,0,0-3.9-1.45,19.21,19.21,0,0,0-4.59-.52,22.08,22.08,0,0,0-6.1.85,25,25,0,0,0-5.66,2.39,25.67,25.67,0,0,0-5,3.69,24.64,24.64,0,0,0-3.93,4.79,24.23,24.23,0,0,0-2.57,5.67,21.37,21.37,0,0,0-.93,6.31,18.78,18.78,0,0,0,1.24,6.91,17,17,0,0,0,3.49,5.52,16,16,0,0,0,5.35,3.67,17.13,17.13,0,0,0,6.81,1.33,24.39,24.39,0,0,0,7.3-1,20.1,20.1,0,0,0,5.92-2.93,18.52,18.52,0,0,0,4.42-4.54,23.25,23.25,0,0,0,2.9-5.89H258.41Z" transform="translate(-159.09 -325.05)"/><path class="bac38832-152f-49af-b25c-f31da5da0aa6" d="M296.55,364.15a25.79,25.79,0,0,1,3.28-8.82,27.93,27.93,0,0,1,6.08-7.21,28.75,28.75,0,0,1,8.24-4.85,26.61,26.61,0,0,1,9.71-1.79,22.56,22.56,0,0,1,9.17,1.77,18.36,18.36,0,0,1,6.66,4.83,17.5,17.5,0,0,1,3.69,7.18,20.87,20.87,0,0,1,.27,8.8l.05.09c-.14.69-.27,1.24-.4,1.66s-.25.81-.39,1.2H306a12.17,12.17,0,0,0,1,4.73,10.72,10.72,0,0,0,2.54,3.59,11.57,11.57,0,0,0,3.67,2.28,12.08,12.08,0,0,0,4.44.81,14.52,14.52,0,0,0,6.89-1.66,14.9,14.9,0,0,0,5.15-4.36h10.91a26.66,26.66,0,0,1-3.94,5.42,28.37,28.37,0,0,1-12.37,7.76,26.22,26.22,0,0,1-8,1.19,22.3,22.3,0,0,1-9.13-1.79,18.29,18.29,0,0,1-6.64-4.86,17.93,17.93,0,0,1-3.69-7.18A20.2,20.2,0,0,1,296.55,364.15Zm26.14-14.57a15.15,15.15,0,0,0-4.85.77,16.31,16.31,0,0,0-4.28,2.13,17.7,17.7,0,0,0-3.5,3.26,18.15,18.15,0,0,0-2.56,4.13h26.32a13.68,13.68,0,0,0-1-4.13,9.93,9.93,0,0,0-2.24-3.26,10.32,10.32,0,0,0-3.4-2.13A12.12,12.12,0,0,0,322.69,349.58Z" transform="translate(-159.09 -325.05)"/><path class="bac38832-152f-49af-b25c-f31da5da0aa6" d="M384.49,351.61l-5,0a17.34,17.34,0,0,0-5.48.85,13.59,13.59,0,0,0-4.5,2.54,14.35,14.35,0,0,0-3.32,4.19,19.24,19.24,0,0,0-1.93,5.79l-3.57,20.46H350.59l7.51-42.71h10l-.71,4.23a22.07,22.07,0,0,1,5.79-3.05,21.8,21.8,0,0,1,7.33-1.18H386Z" transform="translate(-159.09 -325.05)"/><path class="bac38832-152f-49af-b25c-f31da5da0aa6" d="M388.23,367.67a25,25,0,0,1,2-10,26.24,26.24,0,0,1,5.69-8.34,27.31,27.31,0,0,1,19.32-7.83,20.35,20.35,0,0,1,4.4.46,20.66,20.66,0,0,1,3.78,1.23,16.57,16.57,0,0,1,3.15,1.8,17.92,17.92,0,0,1,2.49,2.2l1.08-4.4h9.3L432,385.48h-9.54l.5-4a24.83,24.83,0,0,1-3.2,2.08,26.5,26.5,0,0,1-3.67,1.66,27.4,27.4,0,0,1-4.05,1.12,22.31,22.31,0,0,1-4.36.42,21.31,21.31,0,0,1-8.09-1.48,17.52,17.52,0,0,1-10-10.15A20.47,20.47,0,0,1,388.23,367.67Zm10.25-1.32a12.71,12.71,0,0,0,.85,4.75,11.24,11.24,0,0,0,2.37,3.69,10.44,10.44,0,0,0,3.63,2.41,12.29,12.29,0,0,0,4.65.85,16.28,16.28,0,0,0,6.16-1.2,16.6,16.6,0,0,0,5.23-3.37,16.41,16.41,0,0,0,3.63-5.12,15.12,15.12,0,0,0,1.37-6.46,12.61,12.61,0,0,0-.85-4.71,11,11,0,0,0-2.39-3.69,10.62,10.62,0,0,0-3.65-2.41,12.49,12.49,0,0,0-4.65-.85,15.89,15.89,0,0,0-6.18,1.23,16.77,16.77,0,0,0-5.21,3.36,16.13,16.13,0,0,0-3.61,5.08A15.29,15.29,0,0,0,398.48,366.35Z" transform="translate(-159.09 -325.05)"/><path class="bac38832-152f-49af-b25c-f31da5da0aa6" d="M479.58,351.61l-5,0a17.29,17.29,0,0,0-5.48.85,13.49,13.49,0,0,0-4.5,2.54,14,14,0,0,0-3.32,4.19,19,19,0,0,0-1.93,5.79l-3.57,20.46H445.67l7.51-42.71h10l-.7,4.23a22.07,22.07,0,0,1,5.79-3.05,21.78,21.78,0,0,1,7.32-1.18h5.57Z" transform="translate(-159.09 -325.05)"/><path class="bac38832-152f-49af-b25c-f31da5da0aa6" d="M483.31,367.67a25.06,25.06,0,0,1,2-10,26.52,26.52,0,0,1,5.62-8.36,27.19,27.19,0,0,1,8.51-5.75,26.61,26.61,0,0,1,10.69-2.14,18.28,18.28,0,0,1,8,1.62,18,18,0,0,1,5.56,4L527.31,327h10.08l-10.33,58.48H516.85l.71-3.86a26.9,26.9,0,0,1-6.71,3.71,22,22,0,0,1-8.11,1.48,20.87,20.87,0,0,1-8.09-1.5,18.14,18.14,0,0,1-6.13-4.06,17.88,17.88,0,0,1-3.86-6.08A20.71,20.71,0,0,1,483.31,367.67Zm10.26-1.28a12.75,12.75,0,0,0,.85,4.73,10.67,10.67,0,0,0,2.36,3.69,10.53,10.53,0,0,0,3.63,2.39,12.37,12.37,0,0,0,4.65.85,16.33,16.33,0,0,0,6.17-1.2,16.47,16.47,0,0,0,8.86-8.49,15.27,15.27,0,0,0,1.37-6.46,12.81,12.81,0,0,0-.85-4.71,11.13,11.13,0,0,0-2.39-3.69,10.62,10.62,0,0,0-3.65-2.41,12.49,12.49,0,0,0-4.65-.85,15.9,15.9,0,0,0-6.16,1.23,16.64,16.64,0,0,0-5.23,3.36,16,16,0,0,0-3.61,5.1A15.41,15.41,0,0,0,493.57,366.39Z" transform="translate(-159.09 -325.05)"/><path class="bac38832-152f-49af-b25c-f31da5da0aa6" d="M541.75,367.42a23,23,0,0,1,1-6.76,25.41,25.41,0,0,1,2.8-6.16,26.59,26.59,0,0,1,4.34-5.28,27.84,27.84,0,0,1,5.62-4.1,29.38,29.38,0,0,1,6.6-2.68,27.64,27.64,0,0,1,7.33-1,21.86,21.86,0,0,1,8.32,1.52,19.52,19.52,0,0,1,6.37,4.13,18.11,18.11,0,0,1,4.09,6.14,20,20,0,0,1,1.43,7.56,23.54,23.54,0,0,1-2.18,10,26.48,26.48,0,0,1-6,8.26,28.82,28.82,0,0,1-19.71,7.7,21.64,21.64,0,0,1-8.22-1.5,19,19,0,0,1-6.33-4.11,18.36,18.36,0,0,1-4.07-6.14A20.08,20.08,0,0,1,541.75,367.42Zm10.25-1a13,13,0,0,0,.83,4.71,11.15,11.15,0,0,0,2.33,3.69,10.2,10.2,0,0,0,3.57,2.41,11.83,11.83,0,0,0,4.56.85,15.68,15.68,0,0,0,6.08-1.22,16.67,16.67,0,0,0,5.17-3.39,16.2,16.2,0,0,0,3.57-5.12,15.56,15.56,0,0,0,1.33-6.46,12.92,12.92,0,0,0-.83-4.67,11.15,11.15,0,0,0-2.33-3.69,10.2,10.2,0,0,0-3.57-2.41,12,12,0,0,0-4.56-.85,15.55,15.55,0,0,0-6.08,1.23,16.37,16.37,0,0,0-8.74,8.48A15.59,15.59,0,0,0,552,366.39Z" transform="translate(-159.09 -325.05)"/><path class="f7c4c535-e5d2-4503-b63f-fbbc8f096a28" d="M606.62,327h10.09l-10.33,58.48H596.29Z" transform="translate(-159.09 -325.05)"/><path class="f7c4c535-e5d2-4503-b63f-fbbc8f096a28" d="M641,378a15.66,15.66,0,0,0,4.81-.71,10.33,10.33,0,0,0,3.9-2.26,13.14,13.14,0,0,0,2.89-4,22.39,22.39,0,0,0,1.8-5.92l4-22.37h10.12l-4,22.66a30.05,30.05,0,0,1-3.28,9.71,22.35,22.35,0,0,1-5.54,6.62,21.19,21.19,0,0,1-7.39,3.8,31.44,31.44,0,0,1-8.82,1.21,27.07,27.07,0,0,1-8.38-1.21,13.18,13.18,0,0,1-9.28-10.42,26,26,0,0,1,.15-9.71l4-22.66h10.13l-4,22.37a19.75,19.75,0,0,0-.32,5.87,8.31,8.31,0,0,0,1.48,4,6.62,6.62,0,0,0,3.11,2.28A13.08,13.08,0,0,0,641,378Z" transform="translate(-159.09 -325.05)"/><path class="f7c4c535-e5d2-4503-b63f-fbbc8f096a28" d="M680.42,342.77h10.12L683,385.48H672.86Zm.87-11.33a5.56,5.56,0,0,1,.56-2.41,6.43,6.43,0,0,1,1.56-2,7.24,7.24,0,0,1,2.34-1.41,8,8,0,0,1,2.93-.52,6.26,6.26,0,0,1,2.28.39,5.43,5.43,0,0,1,1.68,1A4.38,4.38,0,0,1,693.7,328a4.78,4.78,0,0,1,.37,1.88,5.75,5.75,0,0,1-.56,2.5,6.35,6.35,0,0,1-1.55,2,7.49,7.49,0,0,1-2.35,1.37,8.42,8.42,0,0,1-2.93.5,5.4,5.4,0,0,1-4-1.41A4.69,4.69,0,0,1,681.29,331.44Z" transform="translate(-159.09 -325.05)"/><path class="f7c4c535-e5d2-4503-b63f-fbbc8f096a28" d="M705.73,372.61a4,4,0,0,0,.34,2.29,5,5,0,0,0,1.51,1.86,7.85,7.85,0,0,0,2.47,1.25,10.76,10.76,0,0,0,3.2.45c3.57,0,6.19-.54,7.88-1.63a5,5,0,0,0,2.53-4.3,2.71,2.71,0,0,0-.78-2,6.34,6.34,0,0,0-2.25-1.35,24.16,24.16,0,0,0-3.54-1c-1.4-.3-3-.62-4.76-.95-1.27-.2-2.62-.47-4-.83a14.65,14.65,0,0,1-4-1.64,9.58,9.58,0,0,1-3-2.95,8.56,8.56,0,0,1-1.2-4.75,15.54,15.54,0,0,1,1.2-6.12,12.75,12.75,0,0,1,3.78-4.94,18.86,18.86,0,0,1,6.54-3.3,33.05,33.05,0,0,1,9.52-1.21,21.49,21.49,0,0,1,6.85,1,13,13,0,0,1,4.84,2.78,9.67,9.67,0,0,1,2.63,4.28,11.83,11.83,0,0,1,.25,5.43l-10.13,0a4,4,0,0,0-1.43-3.69,7.38,7.38,0,0,0-5-1.45,14,14,0,0,0-4,.49,8.85,8.85,0,0,0-2.74,1.31,5.37,5.37,0,0,0-1.6,1.83,4.42,4.42,0,0,0-.52,2.05,3,3,0,0,0,2.28,2.89,30.28,30.28,0,0,0,7,1.43c1.82.3,3.63.68,5.41,1.12a18.88,18.88,0,0,1,4.76,1.84,10.1,10.1,0,0,1,3.36,3.06,8.19,8.19,0,0,1,1.28,4.73,14.06,14.06,0,0,1-6.33,12.14,21.89,21.89,0,0,1-7.2,3.09,38.56,38.56,0,0,1-9.25,1,21.3,21.3,0,0,1-7.78-1.27,14,14,0,0,1-5.15-3.3,10.74,10.74,0,0,1-2.64-4.56,11.47,11.47,0,0,1-.25-5.11Z" transform="translate(-159.09 -325.05)"/><path class="f89d3bbd-1081-4559-9e49-471b262c292b" d="M792.52,360.53a24.9,24.9,0,0,1-2.08,10.09,26.3,26.3,0,0,1-5.72,8.36,27.55,27.55,0,0,1-8.6,5.71,26.76,26.76,0,0,1-10.66,2.12,18.68,18.68,0,0,1-4.34-.48,19,19,0,0,1-3.73-1.29,17.6,17.6,0,0,1-3.14-1.87,16.47,16.47,0,0,1-2.49-2.26l-1,4.57h-9.54L751.47,327h10.09l-3.49,19.8a26.84,26.84,0,0,1,6.77-3.84,22.51,22.51,0,0,1,8.38-1.52,20.87,20.87,0,0,1,8.09,1.48,17.51,17.51,0,0,1,6.06,4.06,17.82,17.82,0,0,1,3.82,6.08A20.75,20.75,0,0,1,792.52,360.53Zm-10.25,1.33a12.81,12.81,0,0,0-.85-4.71,11,11,0,0,0-2.37-3.67,10.69,10.69,0,0,0-3.61-2.39,12.35,12.35,0,0,0-4.63-.85,15.94,15.94,0,0,0-6.16,1.23,16.83,16.83,0,0,0-5.25,3.38,16.56,16.56,0,0,0-3.65,5.1,15,15,0,0,0-1.37,6.44,12.71,12.71,0,0,0,.85,4.75,10.78,10.78,0,0,0,2.36,3.67,10.48,10.48,0,0,0,3.64,2.39,12.15,12.15,0,0,0,4.6.85,16.16,16.16,0,0,0,6.17-1.22,17.28,17.28,0,0,0,5.25-3.39,16.42,16.42,0,0,0,3.65-5.12A15.27,15.27,0,0,0,782.27,361.86Z" transform="translate(-159.09 -325.05)"/><path class="f89d3bbd-1081-4559-9e49-471b262c292b" d="M845,342.77l-25.69,42.71h-9.13l-10.58-42.71h10.79l6.64,29.3h0l17.06-29.3Z" transform="translate(-159.09 -325.05)"/><path class="f89d3bbd-1081-4559-9e49-471b262c292b" d="M855.27,394.15l39.18-67.81h10.17l-39.1,67.77Z" transform="translate(-159.09 -325.05)"/><path class="a61a33ba-c3fe-4bce-a203-96c9e3abd6f6" d="M965.05,360.62l-1.16,6.47L925.17,383.9l1.7-9.71,25.73-10.34-22.08-10.37,1.7-9.67Z" transform="translate(-159.09 -325.05)"/></svg>