<svg id="Capa_1" data-name="Capa 1" xmlns="http://www.w3.org/2000/svg" xmlns:xlink="http://www.w3.org/1999/xlink" viewBox="0 0 451.54 98.69"><defs><style>.cls-1,.cls-2{stroke:#160607;stroke-miterlimit:10;}.cls-1{fill:url(#Degradado_sin_nombre_3);}.cls-2{fill:#fbb90f;stroke-width:0.5px;}.cls-3{fill:#230b0c;}.cls-4{fill:#220b0c;}.cls-5{fill:#fff;opacity:0.26;}</style><radialGradient id="Degradado_sin_nombre_3" cx="57.27" cy="57.74" r="39.86" gradientUnits="userSpaceOnUse"><stop offset="0" stop-color="#ef7900"/><stop offset="1" stop-color="#e8441d"/></radialGradient></defs><circle class="cls-1" cx="57.27" cy="57.74" r="39.86"/><path class="cls-2" d="M87.45,337.33c-2.35,2.36-23.6,24.36-17.68,51,2.2,9.91,9.88,29.83,40.13,34.78,18.16,3,33.83-5.62,38-8.33a127.76,127.76,0,0,1-17.73-11c-6.37-4.7-15.48-11.53-23.76-23.06C100.24,372.11,97.08,364.42,94,357A152.58,152.58,0,0,1,87.45,337.33Z" transform="translate(-44.14 -328.55)"/><rect class="cls-3" x="55.65" width="1.76" height="12.06" rx="0.88"/><rect class="cls-3" x="152.51" y="379.2" width="1.76" height="12.06" rx="0.88" transform="translate(-275.99 210.07) rotate(-90)"/><rect class="cls-3" x="49.3" y="379.2" width="1.76" height="12.06" rx="0.88" transform="translate(-379.2 106.86) rotate(-90)"/><rect class="cls-3" x="139.42" y="345.78" width="1.76" height="12.06" rx="0.88" transform="translate(245.72 -324.71) rotate(45)"/><rect class="cls-3" x="62.28" y="345.78" width="1.76" height="12.06" rx="0.88" transform="translate(312.45 227.38) rotate(135)"/><path class="cls-4" d="M199.06,359.51c.53-1.61.95-3,1.25-4.23a22.21,22.21,0,0,1,1-3,17.51,17.51,0,0,0-2-.3c-.74-.07-1.38-.1-1.91-.1a15.51,15.51,0,0,0-6.95,1.81,26.69,26.69,0,0,0-6.64,4.73,25.22,25.22,0,0,0-4.93,6.64,16.6,16.6,0,0,0-1.91,7.65,3.52,3.52,0,0,0,1,2.81,3.69,3.69,0,0,0,2.47.81,13.91,13.91,0,0,0,4.38-.75,34.69,34.69,0,0,0,4.22-1.72c1.31-.63,2.38-1.2,3.22-1.71a6.34,6.34,0,0,1,1.46-.75c.34,0,.69.27,1.06.8a9.47,9.47,0,0,1,1.06,2.72,50.09,50.09,0,0,0-9.66,4.58,50.81,50.81,0,0,0-9,6.89,35.86,35.86,0,0,0-6.64,8.61,19.93,19.93,0,0,0-2.57,9.71c0,.67,0,1.52,0,2.56a7,7,0,0,0,.81,3,6.79,6.79,0,0,0,2.36,2.52,8.92,8.92,0,0,0,4.83,1,13.85,13.85,0,0,0,7.55-2.31,28,28,0,0,0,6.44-5.69,32.14,32.14,0,0,0,4.58-7.19,20.07,20.07,0,0,0,2-6.84,5.93,5.93,0,0,1,1.06.55,19.67,19.67,0,0,1,2,1.31,20.71,20.71,0,0,1,1.86,1.56,2.18,2.18,0,0,1,.86,1.41A11.74,11.74,0,0,1,200,403a23.65,23.65,0,0,1-6.14,6.18,34.93,34.93,0,0,1-9.2,4.63,31.26,31.26,0,0,1-11.32,1.61,21.77,21.77,0,0,1-5.29-.8,12.38,12.38,0,0,1-4.32-2.17,10.4,10.4,0,0,1-3-3.72,11.86,11.86,0,0,1-1.11-5.28,17.44,17.44,0,0,1,2.77-9.71,33.57,33.57,0,0,1,6.59-7.5,48.33,48.33,0,0,1,7.75-5.38c2.61-1.44,4.73-2.57,6.34-3.37v-.1l-1.21.4a8.84,8.84,0,0,1-2.32.3,18.54,18.54,0,0,1-2.16-.2,13.19,13.19,0,0,1-3.22-.86,8.44,8.44,0,0,1-3-2.06,6.51,6.51,0,0,1-1.66-3.82,13.56,13.56,0,0,1,1.31-8,25.4,25.4,0,0,1,5.13-7.15,26.37,26.37,0,0,1,7.3-5.08,18.59,18.59,0,0,1,7.9-1.91,23.3,23.3,0,0,1,7.09.81,8.55,8.55,0,0,1,3.17,1.61c.47-1.35.82-2.35,1.06-3s.45-1.28.65-1.81c.27.2.71.48,1.31.85l1.86,1.16a18.73,18.73,0,0,1,1.66,1.16c.47.37.71.65.71.85a7.87,7.87,0,0,1-.36,1.66c-.23.84-.53,1.81-.9,2.92s-.77,2.3-1.21,3.57-.86,2.52-1.26,3.72a12,12,0,0,1-1.36-.45c-.63-.23-1.29-.5-2-.8a12.42,12.42,0,0,1-1.76-1C199.31,360,199.06,359.71,199.06,359.51Z" transform="translate(-44.14 -328.55)"/><path class="cls-4" d="M232.41,391.05q1.46-2.35,4.08-6.29a51,51,0,0,1,5.33-6.79q2.72-2.87,4.83-2.87a3.09,3.09,0,0,1,1.76.59A9.2,9.2,0,0,1,250,377.1a7.53,7.53,0,0,1,1.21,1.73,3.69,3.69,0,0,1,.45,1.61,12.2,12.2,0,0,1-.6,3.06c-.4,1.38-.89,2.89-1.46,4.53s-1.18,3.32-1.81,5-1.19,3.27-1.66,4.68-.84,2.57-1.11,3.47-.27,1.36,0,1.36.82-.53,1.66-1.61,1.85-2.5,3-4.27,2.47-3.83,3.87-6.14,2.85-4.75,4.33-7.3v1.81q-6.24,11.07-9.71,16.05c-2.31,3.32-4.18,5.05-5.58,5.19a3.53,3.53,0,0,1-3.17-1.36,6.73,6.73,0,0,1-1.66-3.17,9.16,9.16,0,0,1,.45-3.67A50,50,0,0,1,240,393c.7-1.81,1.46-3.67,2.26-5.58s1.51-3.64,2.12-5.18a38.57,38.57,0,0,0,1.3-3.78c.27-1,.21-1.46-.2-1.46s-1.66.89-3.37,2.67a55.17,55.17,0,0,0-5.68,7.3,94.56,94.56,0,0,0-5.29,8.8,83.81,83.81,0,0,0-4.67,10.42,6.3,6.3,0,0,1-1.72-.91,15.09,15.09,0,0,1-1.91-1.61,12.7,12.7,0,0,1-1.51-1.81,2.37,2.37,0,0,1-.5-1.61,41.1,41.1,0,0,1,1.86-6.69c.91-2.52,1.8-4.93,2.67-7.25s1.59-4.29,2.16-5.93.69-2.57.35-2.77-1.19.45-2.56,1.76a50.72,50.72,0,0,0-4.93,5.68,88.48,88.48,0,0,0-6,9.06,76.69,76.69,0,0,0-5.53,11.77,5.52,5.52,0,0,1-1.36-.9,19.43,19.43,0,0,1-1.71-1.61c-.57-.61-1.09-1.21-1.56-1.81a2.75,2.75,0,0,1-.71-1.41,7.73,7.73,0,0,1,.41-2.42c.33-1.27.77-2.83,1.3-4.68l1.76-6q1-3.22,1.82-6.29t1.46-5.64c.4-1.71.66-3,.8-4a8.81,8.81,0,0,1,1.56.93,19.45,19.45,0,0,1,2.06,1.66,24.34,24.34,0,0,1,1.76,1.79c.51.57.76.95.76,1.15a11.08,11.08,0,0,1-.4,1.91l-1,3.58c-.37,1.37-.79,2.85-1.26,4.42s-.92,3.06-1.36,4.43-.82,2.6-1.15,3.67a20.82,20.82,0,0,0-.61,2.22q1.11-2.31,3.42-6.09t5-7.4a55.38,55.38,0,0,1,5.39-6.23q2.65-2.62,4.68-2.62a2.83,2.83,0,0,1,1.71.6,7.84,7.84,0,0,1,1.41,1.41,7.21,7.21,0,0,1,1,1.71,4.43,4.43,0,0,1,.35,1.61,22.46,22.46,0,0,1-1.66,5.89,86,86,0,0,0-3,9.61h.1C230.58,394.09,231.44,392.63,232.41,391.05Z" transform="translate(-44.14 -328.55)"/><path class="cls-4" d="M282,391.3a53.46,53.46,0,0,1,7.34-2l-.1.91c-1.07.26-2.25.57-3.52.9a30.39,30.39,0,0,0-4,1.41,45.52,45.52,0,0,1-6.39,10.16q-3.48,4-7.9,4a6.38,6.38,0,0,1-4-1.11,3,3,0,0,1-1.41-2.31,4.65,4.65,0,0,1,1-2.67,14.34,14.34,0,0,1,2.62-2.72,25.9,25.9,0,0,1,3.82-2.56q2.16-1.21,4.68-2.32a27,27,0,0,0,1.51-4.12,40.49,40.49,0,0,0,1.21-5.44,18.33,18.33,0,0,0,.15-4.72c-.17-1.35-.72-2-1.66-2-.54,0-1.36.71-2.47,2.12a55.24,55.24,0,0,0-3.92,5.93q-2.26,3.83-5,9.06t-5.54,11.37q-2.11,6.54-3.67,11.77a31.5,31.5,0,0,0-1.56,6.94v.86a10.06,10.06,0,0,0,.1,1.16,5.17,5.17,0,0,1-1.86-1.06,17.19,17.19,0,0,1-2-1.91,18.37,18.37,0,0,1-1.61-2,3.32,3.32,0,0,1-.66-1.26,23.39,23.39,0,0,1,1-5.08q1-3.68,2.56-8.45T253.94,396q1.77-5.32,3.33-10.16c1-3.22,1.89-6.09,2.56-8.6a24.57,24.57,0,0,0,1-5.29,5,5,0,0,1,1.66.81,22.92,22.92,0,0,1,2,1.51,17.81,17.81,0,0,1,1.71,1.61c.5.54.75.9.75,1.1a12.06,12.06,0,0,1-.75,3.17q-.75,2.26-1.86,5.39c-.74,2.08-1.54,4.31-2.42,6.69s-1.67,4.71-2.41,7h.1c1.07-2.28,2.3-4.79,3.67-7.54s2.8-5.34,4.28-7.75a48.52,48.52,0,0,1,4.43-6.24,8.73,8.73,0,0,1,4.32-3.12q3.23-.71,5,.6a6.23,6.23,0,0,1,2.32,3.83,15.88,15.88,0,0,1,.05,5.78A33.08,33.08,0,0,1,282,391.3Zm-8.45,2.92a44.49,44.49,0,0,0-7.3,4.24q-3.08,2.24-3.07,4.43a1.19,1.19,0,0,0,.5,1,2.22,2.22,0,0,0,1.31.35c1.55,0,3.06-.94,4.53-2.84A30.88,30.88,0,0,0,273.52,394.22Z" transform="translate(-44.14 -328.55)"/><path class="cls-4" d="M301.09,373.79a11.94,11.94,0,0,1,2.21.26c.87.17,1.74.37,2.62.6s1.66.49,2.36.76a6.55,6.55,0,0,1,1.46.71l.8-1.72q.51.19,1.62.51c.73.2,1.47.43,2.21.7s1.37.52,1.91.76.8.42.8.55a17.53,17.53,0,0,1-.7,2.23L314.67,384c-.67,1.92-1.38,4-2.11,6.21s-1.41,4.28-2,6.16-1.07,3.45-1.4,4.7-.41,1.87-.21,1.87.93-.52,2-1.56a55.53,55.53,0,0,0,3.72-4.23q2.16-2.67,4.68-6.24a89.8,89.8,0,0,0,4.83-7.7v1.81c-.2.34-.67,1.11-1.41,2.32S321.08,390,320,391.5s-2.25,3.19-3.52,4.93-2.53,3.36-3.77,4.83a33.44,33.44,0,0,1-3.47,3.63,4.6,4.6,0,0,1-2.72,1.41c-.2,0-.57,0-1.11-.1a8.37,8.37,0,0,1-1.66-.41,4.37,4.37,0,0,1-1.51-.9,2.12,2.12,0,0,1-.65-1.61,15.47,15.47,0,0,1,.65-3.88q.66-2.36,1.66-5.18t2.12-5.89c.73-2,1.41-4,2-6h-.2q-1.11,2.31-3.07,6.29t-4.23,7.79a57.48,57.48,0,0,1-4.48,6.6q-2.21,2.76-3.72,2.76a6.48,6.48,0,0,1-4.93-2,7.9,7.9,0,0,1-1.91-5.65,24.18,24.18,0,0,1,1.31-7.06,42,42,0,0,1,3.47-8,28.46,28.46,0,0,1,5-6.56A8.39,8.39,0,0,1,301.09,373.79Zm6.24,2.62a7.14,7.14,0,0,0-4.79,2,23.86,23.86,0,0,0-4.17,5,39.06,39.06,0,0,0-3.32,6.59,53,53,0,0,0-2.16,6.6,19.36,19.36,0,0,0-.71,5c0,1.34.39,2,1.06,2,.47,0,1.24-.65,2.31-2a59.12,59.12,0,0,0,3.83-5.44q2.21-3.46,4.78-8.35t5.18-10.61A2.38,2.38,0,0,0,307.33,376.41Z" transform="translate(-44.14 -328.55)"/><path class="cls-4" d="M327.15,396.94c.47-1,1.12-2.25,2-3.73s1.78-3,2.82-4.62,2.12-3.21,3.27-4.78a53.4,53.4,0,0,1,3.42-4.28,25.76,25.76,0,0,1,3.27-3.12,4.86,4.86,0,0,1,2.87-1.21,3.47,3.47,0,0,1,1.81.56,8.47,8.47,0,0,1,1.66,1.35,7.22,7.22,0,0,1,1.2,1.72,3.58,3.58,0,0,1,.46,1.61,13.15,13.15,0,0,1-.56,3.06c-.37,1.38-.83,2.89-1.4,4.53s-1.18,3.32-1.82,5-1.19,3.27-1.66,4.68-.82,2.57-1.05,3.47-.22,1.36.05,1.36.82-.53,1.66-1.61,1.84-2.5,3-4.27,2.46-3.83,3.87-6.14,2.85-4.75,4.33-7.3v1.81q-6.24,11.07-9.71,16.05T341,406.3a3.55,3.55,0,0,1-3.17-1.36,6.83,6.83,0,0,1-1.66-3.17,9.76,9.76,0,0,1,.41-3.67,42.73,42.73,0,0,1,1.66-5.09q1.05-2.72,2.21-5.58t2.06-5.18a30.55,30.55,0,0,0,1.26-3.78c.23-1,.18-1.46-.15-1.46-.54,0-1.54.78-3,2.32a59.45,59.45,0,0,0-5.08,6.29,94.69,94.69,0,0,0-5.84,9.31,87.22,87.22,0,0,0-5.28,11.37,9,9,0,0,1-1.41-.81,19.44,19.44,0,0,1-1.81-1.36,16.88,16.88,0,0,1-1.61-1.51,2.08,2.08,0,0,1-.7-1.25,11.86,11.86,0,0,1,.5-2c.34-1.14.77-2.53,1.31-4.17s1.1-3.46,1.71-5.44,1.17-3.89,1.71-5.73,1-3.54,1.31-5.08a18.54,18.54,0,0,0,.5-3.53v-.85a9.65,9.65,0,0,0-.1-1.06,11.22,11.22,0,0,1,2.11.76,20.61,20.61,0,0,1,2.32,1.25,19.7,19.7,0,0,1,1.86,1.36c.5.44.75.79.75,1.06a10.16,10.16,0,0,1-.4,2.82c-.27.94-.64,2.11-1.11,3.52s-1.07,3.12-1.81,5.13S328,393.92,327.15,396.94Z" transform="translate(-44.14 -328.55)"/><path class="cls-4" d="M367.4,373.79a11.94,11.94,0,0,1,2.21.26c.87.17,1.74.37,2.62.6s1.66.49,2.36.76a6.79,6.79,0,0,1,1.46.71l.8-1.72c.34.13.88.3,1.61.51s1.48.43,2.22.7,1.37.52,1.91.76.8.42.8.55a17.53,17.53,0,0,1-.7,2.23L381,384c-.67,1.92-1.38,4-2.11,6.21s-1.41,4.28-2,6.16-1.07,3.45-1.4,4.7S375,403,375.24,403s.93-.52,2-1.56a55.53,55.53,0,0,0,3.72-4.23q2.16-2.67,4.68-6.24a89.8,89.8,0,0,0,4.83-7.7v1.81c-.2.34-.67,1.11-1.41,2.32s-1.64,2.58-2.72,4.12-2.25,3.19-3.52,4.93-2.53,3.36-3.77,4.83a33.44,33.44,0,0,1-3.47,3.63,4.6,4.6,0,0,1-2.72,1.41c-.2,0-.57,0-1.11-.1a8.21,8.21,0,0,1-1.66-.41,4.37,4.37,0,0,1-1.51-.9,2.12,2.12,0,0,1-.65-1.61,15.47,15.47,0,0,1,.65-3.88q.66-2.36,1.66-5.18t2.12-5.89c.73-2,1.41-4,2-6h-.2q-1.11,2.31-3.07,6.29t-4.23,7.79a57.48,57.48,0,0,1-4.48,6.6q-2.21,2.76-3.72,2.76a6.48,6.48,0,0,1-4.93-2,7.9,7.9,0,0,1-1.91-5.65,24.18,24.18,0,0,1,1.31-7.06,42,42,0,0,1,3.47-8,28.46,28.46,0,0,1,5-6.56A8.39,8.39,0,0,1,367.4,373.79Zm6.23,2.62a7.13,7.13,0,0,0-4.78,2,23.86,23.86,0,0,0-4.17,5,39.06,39.06,0,0,0-3.32,6.59,53,53,0,0,0-2.16,6.6,19.36,19.36,0,0,0-.71,5c0,1.34.39,2,1.06,2,.47,0,1.24-.65,2.31-2a59.12,59.12,0,0,0,3.83-5.44q2.21-3.46,4.77-8.35c1.72-3.25,3.44-6.79,5.19-10.61A2.39,2.39,0,0,0,373.63,376.41Z" transform="translate(-44.14 -328.55)"/><path class="cls-4" d="M423.84,385.06c-.26.61-.73,1.55-1.4,2.82s-1.46,2.69-2.37,4.23-1.9,3.12-3,4.73-2.13,3.08-3.17,4.42a27.77,27.77,0,0,1-3,3.33,3.92,3.92,0,0,1-2.41,1.3,10.05,10.05,0,0,1-1.21-.1,6.78,6.78,0,0,1-1.61-.4,3.85,3.85,0,0,1-1.41-.91,2,2,0,0,1-.6-1.5,16,16,0,0,1,.45-3.07q.45-2.07,1.26-4.78t1.81-6q1-3.27,2.22-6.79h-.21c-.73,1.54-1.74,3.6-3,6.19s-2.66,5.13-4.13,7.64a54.45,54.45,0,0,1-4.43,6.54c-1.47,1.85-2.75,2.77-3.82,2.77a8.06,8.06,0,0,1-2.77-.5,6.33,6.33,0,0,1-2.36-1.56,7.89,7.89,0,0,1-1.61-2.62,9.27,9.27,0,0,1-.51-3.77,30,30,0,0,1,1.16-6.74,39.9,39.9,0,0,1,2.87-7.4,25.21,25.21,0,0,1,4.28-6.14,8.53,8.53,0,0,1,5.18-2.86,16.15,16.15,0,0,1,2.61,0,16,16,0,0,1,3.07.5,21.13,21.13,0,0,1,3,1,11,11,0,0,1,2.32,1.31l1-2.11q1.11-3.23,2.17-6.54c.7-2.22,1.34-4.26,1.91-6.14s1-3.5,1.41-4.88a13.58,13.58,0,0,0,.55-3,4.53,4.53,0,0,0-.05-.75c0-.17-.12-.52-.25-1.06a7.23,7.23,0,0,1,2.06.91,20,20,0,0,1,2.21,1.56,13.67,13.67,0,0,1,1.76,1.66c.47.54.71.91.71,1.11a21.82,21.82,0,0,1-1.21,5c-.8,2.56-1.78,5.53-2.92,8.93s-2.36,6.95-3.67,10.69-2.48,7.15-3.52,10.28-1.83,5.71-2.37,7.76-.63,3.08-.3,3.08.87-.61,1.81-1.82,2.05-2.78,3.32-4.71,2.62-4.06,4-6.42,2.78-4.72,4.12-7.08ZM395,403.38c.46,0,1.22-.64,2.26-1.91a52.81,52.81,0,0,0,3.67-5.34q2.12-3.42,4.68-8.15t5.18-10.46c-.53-.2-1.17-.41-1.91-.61a9.2,9.2,0,0,0-2.41-.3,6.42,6.42,0,0,0-4.48,2,18.49,18.49,0,0,0-3.62,5,39.09,39.09,0,0,0-2.62,6.44,51.51,51.51,0,0,0-1.56,6.44,18.93,18.93,0,0,0-.3,5C394,402.72,394.36,403.38,395,403.38Z" transform="translate(-44.14 -328.55)"/><path class="cls-4" d="M434.91,373.79a12,12,0,0,1,2.22.26q1.31.26,2.61.6c.87.24,1.66.49,2.37.76a6.79,6.79,0,0,1,1.46.71l.8-1.72c.34.13.87.3,1.61.51s1.48.43,2.22.7,1.37.52,1.91.76.8.42.8.55a17.53,17.53,0,0,1-.7,2.23L448.5,384q-1,2.88-2.12,6.21c-.73,2.22-1.4,4.28-2,6.16s-1.07,3.45-1.41,4.7-.4,1.87-.2,1.87.92-.52,2-1.56,2.28-2.45,3.73-4.23,3-3.86,4.68-6.24,3.28-4.95,4.83-7.7v1.81l-1.41,2.32q-1.11,1.81-2.72,4.12c-1.07,1.55-2.25,3.19-3.52,4.93s-2.53,3.36-3.77,4.83a33.44,33.44,0,0,1-3.48,3.63,4.58,4.58,0,0,1-2.71,1.41c-.2,0-.57,0-1.11-.1a8.21,8.21,0,0,1-1.66-.41,4.37,4.37,0,0,1-1.51-.9,2.08,2.08,0,0,1-.65-1.61,15,15,0,0,1,.65-3.88q.66-2.36,1.66-5.18t2.11-5.89c.74-2,1.41-4,2-6h-.2c-.74,1.54-1.77,3.64-3.07,6.29s-2.72,5.25-4.23,7.79a57.48,57.48,0,0,1-4.48,6.6q-2.2,2.76-3.72,2.76a6.47,6.47,0,0,1-4.93-2,7.9,7.9,0,0,1-1.91-5.65,24.13,24.13,0,0,1,1.3-7.06,42,42,0,0,1,3.48-8,28.46,28.46,0,0,1,5-6.56A8.37,8.37,0,0,1,434.91,373.79Zm6.24,2.62a7.11,7.11,0,0,0-4.78,2,23.56,23.56,0,0,0-4.17,5,38.33,38.33,0,0,0-3.32,6.59,54.83,54.83,0,0,0-2.17,6.6,19.28,19.28,0,0,0-.7,5q0,2,1.05,2c.47,0,1.24-.65,2.32-2a57.42,57.42,0,0,0,3.82-5.44q2.22-3.46,4.78-8.35t5.18-10.61A2.38,2.38,0,0,0,441.15,376.41Z" transform="translate(-44.14 -328.55)"/><path class="cls-4" d="M493.37,375.61a4.47,4.47,0,0,1-.25,2c-.23.7-.5,1.42-.8,2.16s-.59,1.48-.86,2.21a6.43,6.43,0,0,0-.4,2.22,19.55,19.55,0,0,1-2.11-.56,13.94,13.94,0,0,1-2-.8,6.07,6.07,0,0,1-1.45-1,1.09,1.09,0,0,1-.46-1,4.81,4.81,0,0,1,.3-1.41,11.49,11.49,0,0,0-3,.7,18.82,18.82,0,0,0-3.17,1.51,8.91,8.91,0,0,0-2.42,2.07,3.09,3.09,0,0,0-.7,2.46,4.15,4.15,0,0,0,1.15,2.11,18,18,0,0,0,2.47,2.12,60.91,60.91,0,0,1,7.29-2,52,52,0,0,1,8.71-1.1v.9a28.3,28.3,0,0,0-4.08.31c-1.44.2-2.85.43-4.22.7s-2.67.57-3.88.91-2.21.63-3,.9c.47.4,1,.87,1.72,1.41s1.3,1.07,1.91,1.61a11.72,11.72,0,0,1,1.51,1.61,2.59,2.59,0,0,1,.6,1.51,6.79,6.79,0,0,1-1.76,4.68,15.47,15.47,0,0,1-4.18,3.27,20.64,20.64,0,0,1-4.83,1.91,16.55,16.55,0,0,1-3.62.6,6.61,6.61,0,0,1-2.16-.45,11.84,11.84,0,0,1-2.37-1.16,8.5,8.5,0,0,1-1.86-1.56,2.54,2.54,0,0,1-.75-1.66,6.42,6.42,0,0,1,1.05-3.47,13.78,13.78,0,0,1,2.92-3.17,26.75,26.75,0,0,1,4.33-2.81,49.5,49.5,0,0,1,5.28-2.42c-.67-.54-1.44-1.12-2.31-1.76a24.35,24.35,0,0,1-2.42-2,12.11,12.11,0,0,1-1.91-2.37,5.25,5.25,0,0,1-.81-2.82,4.8,4.8,0,0,1,1.06-2.76,13.75,13.75,0,0,1,2.57-2.67,14.46,14.46,0,0,1,3.22-2,7.69,7.69,0,0,1,3-.76,4.15,4.15,0,0,1,2.81,1.36,25,25,0,0,1,2.42,2.67q.49-1.41.9-2.82a4.88,4.88,0,0,0,.21-2.31c.66.13,1.37.3,2.11.5a20.74,20.74,0,0,1,2,.65,5.43,5.43,0,0,1,1.51.86A1.93,1.93,0,0,1,493.37,375.61Zm-14.49,16q-6.84,2.52-10,5.44t-3.17,5a.89.89,0,0,0,.81,1,8.69,8.69,0,0,0,1.61.15,9.77,9.77,0,0,0,3.37-.81,20.65,20.65,0,0,0,4-2.11,16.91,16.91,0,0,0,3.37-2.92,4.92,4.92,0,0,0,1.41-3.22,2.66,2.66,0,0,0-.4-1.31A4.38,4.38,0,0,0,478.88,391.6Z" transform="translate(-44.14 -328.55)"/><path class="cls-4" d="M463.36,378a1.17,1.17,0,0,1-.95.16,8.94,8.94,0,0,1-1.58-.33,10.32,10.32,0,0,1-1.79-.7,4.82,4.82,0,0,1-1.49-1.12,6.66,6.66,0,0,0,1.41-2c.61-1.13,1.23-2.34,1.87-3.61l1.78-3.57a11.82,11.82,0,0,1,1.08-1.91,2.49,2.49,0,0,1,2.12-.5,5,5,0,0,1,2.78,1.33,8.62,8.62,0,0,0-1.29,2.41c-.52,1.27-1.05,2.61-1.57,4s-1,2.7-1.46,3.87A8.49,8.49,0,0,1,463.36,378Z" transform="translate(-44.14 -328.55)"/><path class="cls-4" d="M290,426.9V414.32h2.18a11,11,0,0,1,2.07.14,2.8,2.8,0,0,1,1.08.47,3.15,3.15,0,0,1,1,1.16,3.51,3.51,0,0,1,.32,1.5,2.78,2.78,0,0,1-.52,1.71,2.46,2.46,0,0,1-1.45.93,3,3,0,0,1,1.9,1,3,3,0,0,1,.69,2,4.33,4.33,0,0,1-.27,1.58,3.06,3.06,0,0,1-.8,1.18,3.15,3.15,0,0,1-1.33.73,11.29,11.29,0,0,1-2.63.21Zm1.14-7h1.43a3.7,3.7,0,0,0,2.22-.51,2.08,2.08,0,0,0,.65-1.72,2.3,2.3,0,0,0-.64-1.83,3.55,3.55,0,0,0-2.23-.53h-1.43Zm0,6h1.46a9.49,9.49,0,0,0,1.72-.1,2,2,0,0,0,.8-.36,2.08,2.08,0,0,0,.64-.85,2.83,2.83,0,0,0,.24-1.16,3.22,3.22,0,0,0-.26-1.33,2,2,0,0,0-.74-.86,2.79,2.79,0,0,0-.77-.27,9,9,0,0,0-1.38-.08h-1.71Z" transform="translate(-44.14 -328.55)"/><path class="cls-4" d="M301.74,414.32h1.12v8.21a3.94,3.94,0,0,0,.85,2.77,3.41,3.41,0,0,0,2.61.91,3.33,3.33,0,0,0,2.57-.91,3.89,3.89,0,0,0,.86-2.77v-8.21h1.14v7.84a5.51,5.51,0,0,1-1.14,3.81,4.38,4.38,0,0,1-3.43,1.26,4.42,4.42,0,0,1-3.45-1.26,5.56,5.56,0,0,1-1.13-3.81Z" transform="translate(-44.14 -328.55)"/><path class="cls-4" d="M326.38,417.48a5,5,0,0,0-4.4-2.4,4.94,4.94,0,0,0-3.8,1.58,6.28,6.28,0,0,0-1.08,6.22,5.37,5.37,0,0,0,1.14,1.77,5,5,0,0,0,1.69,1.14,5.27,5.27,0,0,0,2.05.39,4.82,4.82,0,0,0,3.44-1.25,4.39,4.39,0,0,0,1.37-3.26h-4.34v-1H328v.13a6.51,6.51,0,0,1-1.64,4.71,6,6,0,0,1-4.52,1.7,6.14,6.14,0,0,1-4.63-1.82,6.54,6.54,0,0,1-1.77-4.77,7.31,7.31,0,0,1,.45-2.57,6.27,6.27,0,0,1,1.29-2.1,5.87,5.87,0,0,1,2-1.45,6.6,6.6,0,0,1,2.56-.48,7.19,7.19,0,0,1,3.28.69,4.84,4.84,0,0,1,2.1,2Z" transform="translate(-44.14 -328.55)"/><path class="cls-4" d="M330.84,426.9l5.52-13.08,5.29,13.08h-1.24l-1.61-4.26h-5.14L332,426.9Zm3.21-5.24h4.38l-2.15-5.47Z" transform="translate(-44.14 -328.55)"/><path class="cls-4" d="M345.17,426.9V414.32h2.18a11,11,0,0,1,2.07.14,2.78,2.78,0,0,1,1.09.47,3.22,3.22,0,0,1,.95,1.16,3.37,3.37,0,0,1,.33,1.5,2.79,2.79,0,0,1-.53,1.71,2.47,2.47,0,0,1-1.44.93,3,3,0,0,1,1.9,1,3,3,0,0,1,.68,2,4.33,4.33,0,0,1-.26,1.58,3.2,3.2,0,0,1-2.13,1.91,11.45,11.45,0,0,1-2.64.21Zm1.14-7h1.43a3.66,3.66,0,0,0,2.22-.51,2.08,2.08,0,0,0,.65-1.72,2.3,2.3,0,0,0-.63-1.83,3.58,3.58,0,0,0-2.24-.53h-1.43Zm0,6h1.46a9.41,9.41,0,0,0,1.72-.1,2,2,0,0,0,.8-.36,2.1,2.1,0,0,0,.65-.85,2.83,2.83,0,0,0,.24-1.16,3.07,3.07,0,0,0-.27-1.33,1.91,1.91,0,0,0-.74-.86,2.68,2.68,0,0,0-.77-.27,8.86,8.86,0,0,0-1.38-.08h-1.71Z" transform="translate(-44.14 -328.55)"/><path class="cls-4" d="M355.3,426.9l5.52-13.08,5.29,13.08h-1.24l-1.61-4.26h-5.14l-1.66,4.26Zm3.21-5.24h4.38l-2.15-5.47Z" transform="translate(-44.14 -328.55)"/><path class="cls-5" d="M137.92,416.62c.11.5-9.76,4.93-21.86,3.78-10.84-1-19-6.1-18.82-6.56s7.52,3.34,18.82,4.36C128.89,419.35,137.82,416.15,137.92,416.62Z" transform="translate(-44.14 -328.55)"/></svg>